<?xml version="1.0" encoding="UTF-8" standalone="no"?>
<svg
   viewBox="0 0 535.02 617.78"
   version="1.1"
   id="svg17"
   sodipodi:docname="rat talent.svg"
   xml:space="preserve"
   inkscape:version="1.4.2 (f4327f4, 2025-05-13)"
   inkscape:export-filename="slime talent.png"
   inkscape:export-xdpi="96"
   inkscape:export-ydpi="96"
   xmlns:inkscape="http://www.inkscape.org/namespaces/inkscape"
   xmlns:sodipodi="http://sodipodi.sourceforge.net/DTD/sodipodi-0.dtd"
   xmlns="http://www.w3.org/2000/svg"
   xmlns:svg="http://www.w3.org/2000/svg"><defs
     id="defs17"><linearGradient
       id="swatch23"
       inkscape:swatch="solid"><stop
         style="stop-color:#000000;stop-opacity:1;"
         offset="0"
         id="stop24" /></linearGradient></defs><sodipodi:namedview
     id="namedview17"
     pagecolor="#ffffff"
     bordercolor="#000000"
     borderopacity="0.25"
     inkscape:showpageshadow="2"
     inkscape:pageopacity="0.0"
     inkscape:pagecheckerboard="0"
     inkscape:deskcolor="#d1d1d1"
     inkscape:zoom="0.69534033"
     inkscape:cx="156.75777"
     inkscape:cy="-36.672689"
     inkscape:window-width="2560"
     inkscape:window-height="1417"
     inkscape:window-x="-8"
     inkscape:window-y="-8"
     inkscape:window-maximized="1"
     inkscape:current-layer="svg17" /><path
     d="M281,1,523.51,141V421L281,561,38.49,421V141L281,1m0-28.87-12.5,7.21L26,119.34l-12.5,7.21v308.9L26,442.66l242.51,140,12.5,7.21,12.5-7.21L536,442.66l12.5-7.21V126.55L536,119.34,293.5-20.68,281-27.89Z"
     transform="translate(-13.49,27.89)"
     id="path17" /><path
     style="fill:#000000"
     d="m 231.77208,495.90658 c -3.85068,-1.37296 -5.62781,-5.13538 -4.12322,-8.72939 0.67909,-1.62215 3.25743,-3.96775 5.74964,-5.23065 4.13171,-2.0937 11.39137,-3.83966 20.63419,-4.96258 8.55341,-1.03916 37.22236,-0.91769 56.27732,0.23845 57.24588,3.47334 74.82874,3.83126 90.6,1.84429 9.45051,-1.19064 17.54539,-3.48512 22.84968,-6.4767 l 1.95031,-1.09996 -5.08025,-0.11181 c -4.98589,-0.10972 -5.09605,-0.13189 -5.93083,-1.19314 -0.69888,-0.88848 -0.81944,-1.47494 -0.67597,-3.2882 0.096,-1.21377 0.30361,-2.58393 0.46126,-3.0448 0.27343,-0.79932 0.12392,-0.84786 -3.24378,-1.05322 -4.9619,-0.30256 -47.60701,-0.16554 -47.92656,0.15399 -0.14457,0.14456 0.0204,0.81062 0.36664,1.48014 0.92225,1.78344 0.82542,4.89588 -0.18609,5.98161 -0.76098,0.81682 -1.17605,0.87543 -6.2,0.87543 -4.85108,0 -5.46366,-0.0793 -6.18441,-0.8 -1.65218,-1.65218 -0.66732,-6.38658 1.57859,-7.58855 0.59988,-0.32105 0.82318,-0.84034 0.82799,-1.92553 0.0132,-2.97755 2.68746,-6.04741 5.95383,-6.83453 0.79177,-0.1908 5.93959,-0.65357 11.43959,-1.02838 13.60034,-0.92682 13.68336,-0.93854 13.96048,-1.9712 0.12573,-0.4685 0.23105,-7.71478 0.23405,-16.10284 0.005,-12.84557 -0.0861,-15.32701 -0.57504,-15.7328 -0.44634,-0.37043 -5.39206,-0.41426 -21.4,-0.18966 -11.45072,0.16065 -20.81949,0.44305 -20.81949,0.62753 0,0.60912 3.19293,5.67767 6.26546,9.94595 3.88159,5.39222 4.69319,7.14774 4.35308,9.41578 -0.46239,3.08344 -1.68236,4.34432 -14.26271,14.74094 -8.34941,6.9001 -11.32177,8.1671 -20.17921,8.60157 l -5.62338,0.27584 -3.17662,1.85827 c -3.83411,2.24289 -4.68559,2.57885 -7.81233,3.0824 -2.18793,0.35235 -7.89965,0.0695 -12.69469,-0.62873 -1.30983,-0.19073 -1.32051,-0.2088 -0.69077,-1.16989 0.85215,-1.30056 0.60303,-1.23197 -1.29989,0.35787 -2.3747,1.98401 -7.89233,4.74098 -9.18919,4.59154 -1.16541,-0.1343 -1.30597,-0.67547 -0.74514,-2.86878 l 0.29231,-1.14319 -3.17966,0.1444 c -2.94665,0.13381 -3.15176,0.0922 -2.79885,-0.56716 0.6404,-1.1966 3.93494,-3.34235 7.20419,-4.69213 l 3.10439,-1.28171 1.00386,1.14149 c 0.7646,0.86943 1.00688,1.59435 1.01651,3.04149 0.007,1.04501 0.0576,1.89925 0.11264,1.89833 0.055,-9.2e-4 0.9855,-0.45092 2.06779,-1 1.08228,-0.54908 2.30622,-0.99833 2.71986,-0.99833 0.41364,0 1.26246,-0.26392 1.88626,-0.5865 0.89747,-0.46411 1.62379,-0.50633 3.48013,-0.20232 5.76502,0.94412 9.23744,0.30433 14.038,-2.58649 l 3.50796,-2.11243 5,-0.2182 c 7.9501,-0.34695 11.34787,-1.88129 19.22902,-8.68333 6.51757,-5.62516 8.54614,-7.895 9.13076,-10.21671 0.42391,-1.6835 0.37746,-2.05698 -0.4884,-3.92722 -0.52627,-1.13674 -2.20825,-3.7768 -3.73774,-5.8668 -8.11285,-11.08599 -9.10924,-12.66952 -15.22712,-24.2 -6.10502,-11.50624 -8.58915,-16.67737 -8.19897,-17.06756 0.38168,-0.38167 8.88622,0.95585 28.49245,4.48104 16.53864,2.97365 21.15343,3.5964 28.6,3.8595 13.31189,0.47032 23.59377,-1.55749 33.81783,-6.66962 2.68151,-1.34078 8.99253,-5.37292 9.37292,-5.9884 0.36796,-0.59537 -2.41656,-7.73382 -4.97173,-12.74563 -7.26429,-14.24844 -19.70907,-28.52621 -34.29469,-39.34595 -14.27329,-10.58806 -33.33089,-19.66088 -49.47114,-23.55192 -2.11926,-0.51091 -3.85319,-1.07823 -3.85319,-1.26072 0,-0.64666 3.56557,-3.88612 4.47577,-4.0664 2.58264,-0.51155 9.23863,-1.44434 10.30615,-1.44434 1.29727,0 1.63607,-0.55401 0.58536,-0.9572 -0.34799,-0.13354 -2.51382,-0.2428 -4.81296,-0.2428 l -4.18024,0 1.57519,-2.1 c 5.92686,-7.90154 11.13687,-19.25596 12.99855,-28.32836 0.57963,-2.82464 1.45218,-10.16353 1.45218,-12.21402 0,-1.4993 -0.68166,-1.12166 -0.97902,0.54238 -1.03346,5.78321 -7.68873,20.87914 -12.48626,28.32215 -4.41265,6.84591 -6.61571,9.77785 -7.34708,9.77785 -0.39185,0 -2.27632,-0.92044 -4.18772,-2.04543 l -3.47527,-2.04543 -1.26233,1.53142 c -0.69428,0.84228 -1.26232,1.71772 -1.26232,1.94543 0,0.2277 1.93461,1.40401 4.29913,2.61401 2.36453,1.21 4.29953,2.33911 4.3,2.50913 4.8e-4,0.17002 -0.55865,1.64204 -1.24249,3.27117 l -1.24336,2.96205 -2.85664,0.45453 c -2.62877,0.41828 -11.63385,2.58628 -17.83361,4.2935 l -2.57697,0.70962 -8.97256,9.4663 c -4.9349,5.20646 -9.35527,9.56901 -9.82303,9.69454 -2.117,0.56813 -3.31589,0.17635 -7.92739,-2.59058 l -4.71618,-2.82974 -3.50345,2.50076 c -4.47736,3.19592 -9.10656,7.94271 -12.07743,12.38421 -6.51475,9.73965 -7.58463,20.82183 -3.04849,31.57741 1.70963,4.05371 3.27075,6.28032 7.39306,10.54466 9.15079,9.46606 20.40779,17.1612 48.62941,33.24245 9.66839,5.50925 11.79694,6.95173 15.02563,10.18259 3.24127,3.24346 4.49934,5.72028 4.70459,9.26209 0.12325,2.12703 -0.0165,2.96626 -0.72521,4.35549 -1.49666,2.93368 -4.4044,5.45053 -8.69414,7.52536 l -3.89614,1.88446 -19.20737,0.24857 c -11.21939,0.1452 -19.70642,0.41735 -20.40736,0.65439 -0.66,0.22321 -2.26857,1.01263 -3.57459,1.75428 -2.18945,1.24331 -2.41495,1.50416 -2.89228,3.34561 -1.03101,3.97738 -0.74246,4.14873 2.94297,1.74757 1.7093,-1.11365 3.13443,-1.7175 4.38652,-1.85863 l 1.85464,-0.20904 -0.85863,0.85863 c -0.47225,0.47224 -0.85982,1.26362 -0.86127,1.75862 -0.001,0.495 -0.37082,1.44 -0.82083,2.1 -1.88446,2.76385 -3.23006,5.85354 -2.78358,6.39151 0.57766,0.69605 -0.81768,1.80092 -3.80624,3.01389 -2.93372,1.19071 -3.45274,0.77805 -2.47696,-1.96933 0.37964,-1.06889 0.69025,-2.05428 0.69025,-2.18975 0,-0.48569 -1.54857,-0.22977 -4.56211,0.75395 -3.97836,1.29867 -5.55877,1.43244 -5.75415,0.48706 -0.19718,-0.95413 1.76708,-5.07547 4.30364,-9.02975 3.69893,-5.7663 9.1882,-9.80002 14.76721,-10.8515 1.2464,-0.23491 9.37539,-0.40608 19.285,-0.40608 19.31934,0 18.93995,0.0515 24.24891,-3.29062 4.49503,-2.82972 5.84011,-5.31145 4.71489,-8.69917 -1.35609,-4.08279 -5.28876,-7.37074 -15.49661,-12.95607 -22.87219,-12.51476 -36.40225,-21.20541 -46.53716,-29.89182 -11.2003,-9.59953 -15.93578,-18.1311 -16.46409,-29.66218 -0.41824,-9.12855 1.95058,-17.00991 7.28978,-24.25398 2.33824,-3.17244 8.11862,-8.9172 11.11465,-11.04616 1.23841,-0.88 2.26028,-1.79759 2.27084,-2.03909 0.0106,-0.2415 -2.53945,-1.65063 -5.66669,-3.13141 -6.43459,-3.04684 -13.51571,-7.69447 -26.51411,-17.40229 l -8.4,-6.27351 -3.54448,-0.46491 c -5.03292,-0.66013 -7.16679,-2.0174 -10.00413,-6.36324 -1.13343,-1.73602 -1.42233,-1.93757 -2.93506,-2.04761 -1.10296,-0.0802 -2.87855,0.29667 -5.18199,1.1 -2.06555,0.72036 -4.30955,1.22206 -5.46604,1.22206 -1.77693,0 -2.11462,-0.15735 -3.58142,-1.66879 l -1.6195,-1.66878 0.76631,-1.42467 c 0.49698,-0.92396 1.96127,-2.23563 4.16631,-3.73206 1.87,-1.26907 3.35389,-2.44201 3.29754,-2.60655 -0.0564,-0.16453 -0.91235,-0.50575 -1.90221,-0.75827 l -1.79975,-0.45912 -2.09779,1.84523 c -1.15379,1.01488 -4.1031,3.69649 -6.55403,5.95912 l -4.45624,4.11389 h -3.24376 c -3.09781,0 -3.24367,-0.0405 -3.24183,-0.9 0.003,-1.21511 3.12701,-8.0712 4.75926,-10.4436 0.72376,-1.05194 1.21833,-2.01022 1.09904,-2.1295 -0.11928,-0.11928 -1.00433,0.0514 -1.96679,0.37938 -1.32865,0.45272 -2.75419,1.62916 -5.92167,4.88691 -5.54916,5.70729 -5.67037,5.78365 -9.86745,6.21668 -4.70717,0.48566 -4.86443,0.301 -3.11372,-3.65618 1.36984,-3.09629 7.16773,-14.11151 7.94244,-15.08956 0.23345,-0.29473 2.23402,-1.44084 4.44571,-2.54691 2.21168,-1.10608 5.9772,-3.08851 8.3678,-4.40541 5.78321,-3.18576 6.12592,-3.26583 10.03531,-2.34452 4.49351,1.05896 9.85499,2.03083 13.39089,2.42737 2.89726,0.32491 3.04731,0.2992 4.41324,-0.75636 3.6294,-2.80471 7.41851,-4.59843 10.62898,-5.03163 1.09177,-0.14731 4.01698,-0.8165 6.50047,-1.48709 2.82076,-0.76165 5.01028,-1.13894 5.83391,-1.00529 0.72515,0.11768 4.2732,1.59929 7.88455,3.29247 7.793,3.65373 12.26914,5.48819 24.5661,10.06792 12.5477,4.67311 15.90071,5.78461 16.28647,5.39884 0.43105,-0.43104 3.14034,-10.38351 4.75671,-17.47352 0.95804,-4.20235 1.26328,-6.45939 1.223,-9.04334 -0.0532,-3.41267 -0.0453,-3.44173 0.88866,-3.2632 0.82318,0.15737 0.97859,-0.0142 1.22921,-1.35666 0.91643,-4.90912 6.4307,-17.51941 10.30186,-23.55882 1.89725,-2.9599 6.92955,-9.15376 9.06128,-11.15282 2.27387,-2.13235 1.30754,-1.88246 -2.44719,0.63282 -5.10861,3.42224 -11.40144,9.81804 -15.03948,15.28555 -2.72994,4.10276 -8.06052,14.2276 -8.06052,15.31004 0,0.9562 -0.72894,0.93383 -3.05229,-0.0937 -3.76235,-1.66388 -28.41054,-9.68251 -31.72049,-10.31941 -1.66497,-0.32037 -4.19722,-0.69097 -5.62722,-0.82356 -3.51958,-0.32635 -6.88673,-1.01163 -7.52738,-1.53199 -0.32489,-0.26387 -0.47847,-1.05356 -0.4,-2.05664 0.11841,-1.51369 0.0504,-1.63717 -0.9664,-1.75427 -1.74178,-0.2006 -19.10622,4.88219 -19.10622,5.59263 0,0.1821 0.82922,1.4566 1.84271,2.83221 2.02926,2.75432 3.13942,4.79643 4.71372,8.67081 1.18504,2.91642 1.16405,2.83032 0.69021,2.83032 -0.19435,0 -1.49738,-1.575 -2.89564,-3.5 -2.05396,-2.82773 -4.70694,-6.13305 -7.57927,-9.44294 -0.37746,-0.43495 -6.7693,1.79735 -6.77069,2.36463 -5.7e-4,0.23192 0.54172,1.27754 1.20511,2.32358 2.63002,4.14712 5.63799,11.55656 4.9591,12.21561 -0.30573,0.29679 -0.49474,0.0352 -5.39116,-7.46088 -2.19147,-3.355 -4.22009,-6.1 -4.50804,-6.1 -0.65221,0 -4.36867,1.21814 -4.7386,1.55316 -0.1499,0.13576 0.16625,2.04684 0.70255,4.24684 0.91425,3.7504 1.73759,9.84332 1.27022,9.4 -0.11596,-0.11 -1.33506,-2.94928 -2.7091,-6.3095 -1.37404,-3.36022 -2.65736,-6.20783 -2.85183,-6.32802 -0.19446,-0.12019 -2.01536,-0.0122 -4.04643,0.24004 -2.03108,0.25221 -4.68286,0.39982 -5.89286,0.32802 l -2.2,-0.13054 4.8,-1.50905 c 12.42952,-3.90766 21.30293,-6.83481 22.35114,-7.37317 l 1.15114,-0.59122 -2.33862,-2.36328 c -2.15256,-2.17526 -2.25833,-2.36328 -1.32945,-2.36328 1.0079,0 4.22358,1.80151 5.79938,3.24897 0.77656,0.71332 0.93341,0.72399 2.29264,0.15607 3.33559,-1.3937 13.56636,-4.71571 17.47377,-5.67387 2.82994,-0.69395 5.76577,-1.09284 9,-1.22283 l 4.8,-0.19291 -1.71049,1.48243 c -1.43734,1.2457 -2.88951,3.23109 -2.88951,3.95049 0,0.26655 1.49401,0.56049 7.2,1.41656 3.59242,0.53897 7.22853,1.48168 12.91618,3.34867 l 7.91618,2.59852 3.9259,-5.05605 c 4.45789,-5.74119 6.19587,-8.15342 13.11806,-18.20721 2.70802,-3.93314 4.92368,-7.30814 4.92368,-7.5 0,-0.19186 -2.02219,-0.34884 -4.49375,-0.34884 l -4.49375,0 4.69375,-4.70601 c 2.58156,-2.58831 4.69375,-4.84501 4.69375,-5.0149 0,-0.16989 -3.105,-0.19083 -6.9,-0.0465 l -6.9,0.26234 2.6,-2.67629 c 3.7627,-3.87312 8.21067,-6.69668 12.6,-7.99846 13.6413,-4.04572 22.48604,-9.7394 27.97458,-18.00822 2.63465,-3.96928 3.54567,-6.70594 3.73238,-11.21192 0.15037,-3.62909 0.0513,-4.35557 -1.06846,-7.83465 -3.40975,-10.59407 -12.27486,-17.92076 -20.55077,-16.98445 -8.29613,0.9386 -17.99195,6.75445 -24.61714,14.7661 -5.4679,6.61218 -10.86949,16.75739 -14.90699,27.99813 -1.91483,5.33103 -2.17007,5.82683 -2.47105,4.8 -0.7328,-2.5001 0.30879,-9.52098 2.17463,-14.65815 0.46205,-1.27216 0.75034,-2.40278 0.64064,-2.51249 -0.10971,-0.10971 -1.57903,0.61616 -3.26517,1.61303 l -3.06569,1.81249 -19.53848,0 c -10.74617,0 -20.08209,0.10872 -20.74649,0.2416 -0.90896,0.18179 -1.37958,0.62207 -1.90105,1.77849 -1.35229,2.99884 -2.50062,2.83676 19.13814,2.70112 l 19.33791,-0.12121 -0.74073,1.67404 c -0.89139,2.01453 -0.96173,3.26825 -0.53754,9.58112 0.37497,5.58029 0.37899,5.57317 -3.40017,6.02075 l -1.98855,0.23552 v -1.67596 -1.67596 l -6.9,6.84105 c -7.10975,7.049 -9.48798,8.74973 -13.1,9.36808 l -1.4,0.23967 1.25093,-0.76844 c 1.92159,-1.18042 3.74907,-5.1567 3.74907,-8.15736 0,-2.83817 -0.71007,-5.48251 -1.4722,-5.48251 -0.30006,0 -1.95618,0.70924 -3.68026,1.57609 l -3.1347,1.5761 0.19062,1.98386 c 0.17287,1.79903 0.0933,2.04759 -0.8535,2.668 -0.66467,0.4355 -1.40862,0.59266 -2.04705,0.43242 -0.5516,-0.13844 -1.00291,-0.13779 -1.00291,0.001 0,0.86276 1.97625,3.49532 3.45656,4.60447 2.20924,1.65531 1.80737,1.94349 -2.72138,1.95149 -4.06212,0.007 -8.76883,0.8297 -11.39479,1.99128 -1.02521,0.4535 -1.93876,0.74981 -2.03011,0.65846 -0.0913,-0.0914 0.22866,-0.93987 0.71114,-1.88561 1.4093,-2.76244 2.43302,-6.06356 2.01121,-6.48537 -0.49023,-0.49024 -16.17132,15.14578 -19.78424,19.72737 -1.47463,1.87 -4.43832,6.01 -6.58598,9.2 l -3.90483,5.8 0.54083,2 c 0.51413,1.9013 0.75247,8.88245 0.31807,9.31684 -0.34066,0.34067 -5.12358,-1.09458 -6.78543,-2.03617 -2.62608,-1.4879 -2.6277,-1.70054 -0.0482,-6.32909 6.71087,-12.04178 13.41701,-21.14321 22.06901,-29.95158 4.45968,-4.54028 6.56642,-6.9745 6.75064,-7.8 0.14729,-0.66 0.79354,-2.8251 1.4361,-4.81134 1.13926,-3.52155 1.26019,-3.70281 4.86485,-7.29139 3.5986,-3.58254 3.77682,-3.70057 6.72537,-4.45409 5.1765,-1.3229 10.19523,-2.95617 9.65573,-3.14231 -0.51737,-0.17851 -4.67758,0.32015 -17.68454,2.11972 -12.93043,1.78899 -20.31561,2.57941 -24.10042,2.57941 -3.51478,0 -3.82275,-0.0667 -4.71983,-1.02156 -0.89709,-0.95491 -0.92065,-1.09192 -0.36104,-2.1 0.81462,-1.46745 5.42586,-3.68961 11.36128,-5.47501 5.00566,-1.50573 16.74956,-4.23362 21.73898,-5.04958 2.00416,-0.32776 3.03466,-0.69351 3.28809,-1.16705 0.20301,-0.37932 1.07379,-2.73653 1.93507,-5.23824 2.36849,-6.8796 6.78963,-18.38438 7.30225,-19.00204 0.37077,-0.44675 3.6029,-0.54541 17.7046,-0.5404 9.48806,0.003 17.47758,0.14996 17.75448,0.32575 0.27691,0.17579 1.77998,3.27803 3.34017,6.89387 1.56019,3.61584 2.89094,6.63157 2.95723,6.70162 0.0663,0.07 0.962,-0.51496 1.99047,-1.3 1.02847,-0.78505 2.02744,-1.42737 2.21993,-1.42737 0.19249,0 1.19259,-1.305 2.22246,-2.9 9.45656,-14.64583 25.66046,-23.9298 37.44659,-21.4549 8.89919,1.86869 16.87118,10.41051 19.74365,21.1549 0.95186,3.56039 0.96363,9.84858 0.0243,12.97374 -1.05917,3.52384 -3.46967,8.06062 -6.00323,11.29861 -1.23477,1.57809 -2.24503,2.94918 -2.24503,3.04686 0,0.0977 1.665,0.3044 3.7,0.45938 7.90028,0.60163 19.13811,2.88362 27.99309,5.68437 37.82349,11.9632 68.59349,38.92526 87.34661,76.53705 9.18095,18.41359 14.59093,36.72224 16.19271,54.8 0.58383,6.5892 0.25752,19.73731 -0.63038,25.4 -1.39327,8.88577 -4.73565,19.73314 -8.18708,26.57037 -3.37872,6.69321 -9.76562,16.29482 -13.83643,20.80073 -0.79877,0.88415 -1.39071,1.76208 -1.31542,1.95097 0.0753,0.18889 1.34566,1.46851 2.82304,2.84359 l 2.68615,2.50015 2.02713,-2.02714 c 1.79243,-1.79242 2.33277,-2.78042 4.66671,-8.5329 2.46447,-6.07421 9.58292,-24.32459 12.13262,-31.10577 4.95375,-13.17499 20.66293,-50.61245 27.08488,-64.54755 9.21049,-19.986 10.05646,-21.47198 13.61969,-23.92354 4.44712,-3.0597 18.49496,-8.72891 21.62951,-8.72891 2.34604,0 3.79701,0.96941 4.46064,2.98022 0.57655,1.74699 0.6171,1.60202 -4.95151,17.70604 -7.28284,21.06151 -14.53835,40.33712 -21.64867,57.51374 -9.48256,22.90733 -14.2812,34.64222 -18.64677,45.6 -4.35079,10.92069 -4.93566,12.1497 -6.50264,13.66435 -0.96166,0.92954 -2.41105,1.85571 -3.28287,2.09777 -0.95595,0.26542 -6.08815,0.43429 -13.24066,0.43565 l -11.67964,0.002 -1.06847,1.40084 -1.06847,1.40084 2.20756,2.51444 c 3.2172,3.66445 7.17966,9.68106 9.74639,14.79899 7.85429,15.66101 9.35478,34.76047 3.91209,49.79616 -5.75247,15.89143 -17.56879,26.08023 -35.82576,30.89126 -9.35696,2.46572 -16.92413,3.42233 -32.044,4.05085 -15.98752,0.6646 -42.39722,-0.22085 -66.90005,-2.24299 -41.87077,-3.45545 -65.06479,-3.80927 -77.3,-1.1792 -1.595,0.34286 -2.9,0.75973 -2.9,0.92637 0,0.16665 0.45,0.72575 1,1.24245 1.37253,1.28943 1.30164,2.62347 -0.18014,3.38972 -1.47917,0.76491 -6.04559,0.77992 -8.15779,0.0268 z m 3.99992,-3.34804 c -0.7634,-0.84356 -0.84094,-1.78672 -0.23931,-2.91089 0.37767,-0.70569 -0.13087,-2.06288 -1.45744,-3.88958 -0.24982,-0.344 -2.27142,1.37701 -2.78569,2.3715 -0.85614,1.6556 -0.72479,2.29523 0.78045,3.80047 1.06375,1.06375 1.68717,1.36 2.86199,1.36 1.42977,0 1.47017,-0.0352 0.84,-0.7315 z m 134.33801,-5.4685 v -3.6 l -10.36099,-0.31902 c -6.76542,-0.20831 -10.499,-0.181 -10.7587,0.0787 -0.21875,0.21875 -0.48477,1.75395 -0.59115,3.41157 -0.14953,2.33004 -0.0681,3.06094 0.35871,3.22145 0.58994,0.22183 17.07356,0.93556 19.75213,0.85525 l 1.6,-0.048 z m 18.18645,3.44737 4.58646,-0.24737 0.36323,-1.27151 c 0.37524,-1.3135 0.0934,-4.32288 -0.4929,-5.26325 -0.27188,-0.43605 -2.18922,-0.48092 -10.38833,-0.24309 l -10.05491,0.29165 v 3.5431 3.5431 l 5.7,-0.0526 c 3.135,-0.0289 7.7639,-0.16394 10.28645,-0.3 z m 13.89306,-1.05395 c 5.52353,-0.70977 10.73862,-1.66695 12.03867,-2.20959 0.8025,-0.33497 0.88562,-0.57227 0.65978,-1.88354 -0.33867,-1.96634 -1.72442,-4.90062 -2.31365,-4.89908 -0.25537,6.6e-4 -2.28492,0.3547 -4.51011,0.78674 -2.22518,0.43204 -6.14333,0.99818 -8.707,1.25809 l -4.6612,0.47256 0.27582,1.4407 c 0.36253,1.89356 0.4646,2.77117 0.50484,4.3407 0.04,1.56075 -0.003,1.55635 6.71285,0.69342 z m -55.87511,-1.89342 c 0.002,-1.155 0.11034,-2.74029 0.23982,-3.52285 l 0.23541,-1.42286 -10.46627,-0.53069 c -6.05455,-0.307 -10.60806,-0.38167 -10.80264,-0.17715 -0.56418,0.59297 -1.01763,3.05848 -0.88876,4.83233 0.11966,1.64716 0.15358,1.6827 1.8,1.88684 2.87986,0.35708 11.89959,0.9054 15.97804,0.97133 l 3.9,0.0631 z m -23.54627,-2.1 c 0.14198,-1.54 0.32198,-3.0694 0.4,-3.39867 0.11856,-0.5003 -0.97544,-0.67469 -6.65813,-1.06138 -9.688,-0.65922 -13.77653,-0.72343 -14.27577,-0.22419 -0.23482,0.23483 -0.51803,1.69984 -0.62934,3.25559 -0.15962,2.23093 -0.0854,2.83554 0.35136,2.86126 0.30456,0.0179 4.60375,0.35518 9.55375,0.74945 4.95,0.39426 9.45,0.69458 10,0.66739 0.94034,-0.0465 1.0154,-0.21649 1.25813,-2.84945 z m -80.15964,1.54152 c 1.67361,-0.34611 4.99595,-0.83454 7.383,-1.08541 2.38704,-0.25086 4.33522,-0.59111 4.32929,-0.75611 -0.006,-0.165 -0.0108,-1.31074 -0.0108,-2.54609 v -2.24609 l -2.3,0.26421 c -6.16838,0.70861 -14.87273,2.87074 -15.96089,3.96464 -0.34815,0.34999 -0.21882,0.8391 0.52871,1.99948 0.83485,1.29595 1.14582,1.49695 1.98867,1.28541 0.54949,-0.13791 2.36839,-0.53393 4.042,-0.88004 z m 56.81565,-2.69689 c 0.0107,-1.19531 0.22221,-2.55201 0.46994,-3.0149 0.3526,-0.65883 0.33084,-0.88749 -0.10018,-1.05289 -0.30283,-0.1162 -4.94559,-0.35231 -10.31725,-0.52467 -7.36003,-0.23617 -9.89742,-0.1962 -10.29733,0.16218 -0.63506,0.56911 -1.06489,3.35201 -0.72618,4.70154 0.23671,0.9431 0.36692,0.97111 5.94943,1.27954 3.13909,0.17344 7.68743,0.4293 10.10743,0.56858 2.42,0.13929 4.51128,0.20839 4.6473,0.15357 0.13602,-0.0548 0.2561,-1.07764 0.26684,-2.27295 z m 123.82127,0.31344 c 3.83148,-1.46785 9.29839,-4.19757 10.84835,-5.41677 0.84419,-0.66404 0.91572,-0.91027 0.56047,-1.92933 -0.45697,-1.31088 -3.61811,-4.41197 -4.49739,-4.41197 -0.31407,0 -1.88795,0.81193 -3.49752,1.8043 -1.60957,0.99236 -4.82163,2.54237 -7.13791,3.44446 -2.31628,0.90209 -4.27737,1.70112 -4.35799,1.77561 -0.0806,0.0745 0.22512,1.08948 0.6794,2.25553 0.45429,1.16605 0.9319,2.62794 1.06136,3.24863 0.21533,1.03242 0.34484,1.10535 1.5206,0.85625 0.70687,-0.14976 2.87615,-0.88178 4.82063,-1.62671 z m -146.72637,-1.25807 c 0.005,-1.045 0.095,-2.35 0.2,-2.9 l 0.19096,-1 -5.2,0.0689 c -2.86,0.0379 -7.39687,0.19057 -10.08193,0.33923 l -4.88193,0.2703 -0.42389,1.28439 c -0.30286,0.91767 -0.29684,1.64882 0.0211,2.56076 l 0.44495,1.27638 h 9.86087 9.86087 z m 163.23026,-8.6 c 2.66194,-2.42648 6.22935,-7.08554 7.96069,-10.39671 0.95415,-1.82478 1.10929,-2.43925 0.75723,-2.99914 -0.75739,-1.20451 -4.48552,-2.90416 -6.37018,-2.90416 h -1.72161 l -1.80726,3.3973 c -1.78223,3.35025 -4.57487,7.29735 -6.18649,8.74393 l -0.82578,0.74122 1.67705,1.2742 c 0.92237,0.70081 2.03704,1.94177 2.47704,2.75769 0.44,0.81593 1.0105,1.48399 1.26777,1.48458 0.25727,6e-4 1.50447,-0.94391 2.77154,-2.09891 z m -9.11535,-7.4 c 4.68947,-4.6958 7.93092,-12.31089 8.86898,-20.83578 0.91259,-8.2935 -1.08877,-18.19914 -5.46813,-27.06423 -1.50823,-3.05307 -6.12759,-10.2 -6.5927,-10.2 -0.15902,0 -0.68024,1.07265 -1.15825,2.38366 -1.08432,2.97382 -3.04036,5.29971 -5.26472,6.26013 -1.49525,0.64562 -3.06064,0.75244 -12.50913,0.85363 -5.94,0.0636 -11.205,0.20615 -11.7,0.31675 l -0.9,0.20108 v 16.39237 c 0,15.345 0.0447,16.39241 0.7,16.39272 0.385,1.8e-4 2.59675,0.1802 4.91501,0.40005 2.31826,0.21984 7.30456,0.66057 11.08066,0.97939 4.17556,0.35255 7.30424,0.80873 7.98499,1.16424 2.3796,1.24272 4.11934,4.04953 4.11934,6.64595 0,0.62142 0.41468,1.46016 0.98839,1.99913 1.30053,1.22179 1.96035,3.32013 1.65144,5.25194 -0.1563,0.97747 -0.0932,1.55897 0.16923,1.55897 0.23019,0 1.63189,-1.215 3.11489,-2.7 z m 20.66534,-11.49652 c 1.08582,-3.33612 1.97375,-8.25741 2.42964,-13.46613 0.25606,-2.92564 0.22652,-3.08488 -0.66028,-3.55948 -0.51058,-0.27326 -2.10516,-0.57317 -3.54349,-0.66647 -2.16752,-0.14061 -2.92328,-0.0106 -4.41517,0.75948 l -1.8,0.92911 -0.27555,5 c -0.15798,2.86648 -0.62735,6.3501 -1.1,8.16399 -0.45345,1.74019 -0.82445,3.21704 -0.82445,3.28187 0,0.0648 0.675,0.23121 1.5,0.3697 2.44395,0.41027 4.2129,1.04463 5.68521,2.03874 0.76186,0.51442 1.51536,0.80264 1.67445,0.6405 0.15909,-0.16214 0.75743,-1.73322 1.32964,-3.49131 z m -1.3893,-19.6833 c 1.21,0.1131 2.54389,0.34266 2.9642,0.51015 0.72948,0.29069 0.75175,0.1427 0.49039,-3.25761 -0.2886,-3.75449 -1.78273,-11.03741 -3.0026,-14.63563 l -0.72451,-2.1371 -2.04269,-0.12017 c -2.58693,-0.15219 -5.43342,1.01938 -7.42022,3.05406 l -1.44953,1.48444 1.15051,2.99084 c 1.0369,2.69552 2.42533,8.22177 3.02162,12.02669 l 0.22502,1.43587 2.29391,-0.77859 c 1.63975,-0.55655 2.92128,-0.71994 4.4939,-0.57295 z m -9.96351,-18.87383 c 2.14504,-1.62352 5.24233,-2.84636 7.20945,-2.84636 0.63473,0 1.15406,-0.20259 1.15406,-0.4502 0,-0.83961 -4.01631,-8.13241 -6.36073,-11.5498 -2.22616,-3.245 -2.39419,-3.39421 -3.68588,-3.27313 -2.82906,0.2652 -6.19042,2.63627 -7.58741,5.35208 l -0.76075,1.47895 2.51165,3.72105 c 1.3814,2.04658 3.13523,4.93539 3.89739,6.41957 0.76215,1.48419 1.42708,2.69919 1.47762,2.7 0.0505,8.2e-4 1.01561,-0.69766 2.1446,-1.55216 z m -9.72115,-15.44867 c 1.14831,-1.5278 2.1785,-2.32699 4.37978,-3.39769 1.58307,-0.77 2.88428,-1.5453 2.89159,-1.7229 0.007,-0.1776 -2.46171,-2.83717 -5.48671,-5.91015 l -5.5,-5.58725 -2.95526,2.31015 c -2.71062,2.11891 -3.01644,2.50884 -3.69411,4.71015 -0.40636,1.32 -0.74149,2.69458 -0.74473,3.05462 -0.003,0.36004 1.20911,1.65257 2.69411,2.8723 1.485,1.21973 3.50433,3.04204 4.4874,4.04959 0.98307,1.00754 1.93119,1.78396 2.10692,1.72538 0.17574,-0.0586 0.99519,-1.00547 1.82101,-2.1042 z M 286.10466,321.49003 c 3.28002,-3.52 10.11305,-10.63123 15.18451,-15.80274 5.07146,-5.17151 10.36894,-10.59967 11.77218,-12.06257 l 2.55135,-2.65983 -1.75135,-1.1065 c -5.55342,-3.50864 -21.74685,-10.95103 -22.37832,-10.28492 -0.16505,0.17411 -2.31258,4.27656 -4.77227,9.11656 -2.4597,4.84 -5.67111,10.82232 -7.13646,13.29404 -2.60799,4.39907 -2.69482,4.49417 -4.10897,4.5 -0.79457,0.003 -2.62389,-0.52872 -4.06515,-1.18222 -1.44126,-0.6535 -4.57116,-1.9254 -6.95532,-2.82644 -13.57314,-5.12968 -21.32661,-8.36491 -29.33485,-12.24035 l -6.2,-3.00037 -3.6,-5.04268 c -1.98,-2.77348 -4.71617,-6.65209 -6.08037,-8.61915 -1.36421,-1.96705 -2.7871,-3.91539 -3.162,-4.32964 -0.8536,-0.94322 -2.67817,-0.9676 -7.75763,-0.10364 -2.09184,0.3558 -6.76682,0.70094 -10.4,0.76782 -3.63,0.0668 -6.70531,0.13525 -6.83402,0.15206 -0.47541,0.0621 -5.90679,7.1443 -8.15264,10.63057 -1.27551,1.98 -2.64566,4.07465 -3.04477,4.65479 -0.85146,1.23764 -0.6626,1.54521 0.94884,1.54521 0.91056,0 1.79608,-0.58806 3.83334,-2.54565 1.45709,-1.40011 4.13103,-3.83719 5.9421,-5.41574 l 3.29285,-2.87009 6.43024,1.31574 6.43024,1.31574 2.51687,5.2 c 2.68518,5.54772 5.09354,8.73021 7.30629,9.65475 0.71773,0.29989 2.61574,0.55056 4.21781,0.55706 l 2.91285,0.0118 5.2,4.02157 c 13.64195,10.55041 22.711,16.38493 33.8,21.74502 4.51,2.18 8.65,4.27777 9.2,4.66171 0.55,0.38394 2.08,1.34358 3.4,2.13252 3.81137,2.278 3.86492,2.25229 10.79465,-5.18444 z m -20.01465,-23.3386 c -0.209,-0.18623 -1.91,-1.4821 -3.78,-2.87972 -1.87,-1.39762 -7.77443,-5.97025 -13.12095,-10.16141 -5.34652,-4.19115 -10.06476,-7.86274 -10.48498,-8.15909 -0.64863,-0.45743 -1.03225,-0.43639 -2.53967,0.1393 -1.72336,0.65816 -4.86546,0.6832 -6.8544,0.0546 -0.45571,-0.14402 -1.1266,-6.3e-4 -1.55887,0.33317 -0.72847,0.56252 -0.67652,0.71144 1.29668,3.71699 l 2.05556,3.13099 8.70331,3.84738 c 4.78683,2.11605 11.76332,5.0403 15.50332,6.49833 3.74,1.45803 7.43,2.90427 8.2,3.21388 1.56615,0.62973 3.17449,0.79526 2.58,0.26554 z M 201.08737,286.7014 c 1.95875,-0.98375 3.66396,-1.95462 3.78935,-2.15751 0.12539,-0.20288 -0.0432,-1.018 -0.37474,-1.81137 -0.77231,-1.8484 -1.90899,-1.89493 -5.61968,-0.23006 -2.91212,1.30658 -3.49777,1.85443 -4.20662,3.9351 -0.90687,2.66189 1.44424,2.75864 6.41169,0.26384 z m 68.15095,-0.64022 c 2.10855,-0.58551 4.51397,-2.88153 5.9043,-5.63575 0.64206,-1.27192 1.16739,-2.47117 1.16739,-2.665 0,-0.19383 -3.825,-1.75902 -8.5,-3.4782 -15.42892,-5.67383 -23.65162,-9.02726 -26.03092,-10.61609 -1.28945,-0.86107 -3.07449,-1.76215 -3.96675,-2.00241 -0.89225,-0.24026 -2.60769,-0.87263 -3.81208,-1.40527 -2.76737,-1.22386 -3.98236,-1.21383 -9.23454,0.0762 -3.65215,0.89706 -4.44221,0.97628 -5.59149,0.56069 -1.21883,-0.44073 -1.43336,-0.39618 -2.40131,0.49872 -0.5846,0.54048 -1.64791,1.31697 -2.36291,1.72555 -0.715,0.40857 -1.3,0.86361 -1.3,1.01119 0,0.14759 0.80914,0.38968 1.7981,0.53798 1.01994,0.15296 2.31518,0.70474 2.99293,1.27504 l 1.19484,1.00539 4.86796,-0.41559 c 6.88845,-0.58807 7.26154,-0.1559 2.09581,2.4277 -1.89769,0.94912 -3.53765,1.95318 -3.64436,2.23125 -0.1815,0.47299 1.57087,3.16924 2.44849,3.76732 0.21784,0.14845 1.08328,-0.0807 1.92322,-0.50919 1.28444,-0.65527 2.01951,-0.73961 4.62508,-0.53069 3.0443,0.24411 3.1542,0.22004 6.34831,-1.39081 1.78771,-0.90157 3.37289,-1.63922 3.52262,-1.63922 0.14972,0 -0.0513,0.54761 -0.44662,1.21691 -0.47114,0.79757 -0.57562,1.31447 -0.30321,1.50001 0.2286,0.15569 2.20691,1.64698 4.39623,3.31397 6.74739,5.13758 12.56969,8.50659 15.7806,9.13127 2.5714,0.50026 6.7433,0.50466 8.52831,0.009 z m -100.61857,-2.59566 c 0.19222,-0.34348 1.77617,-2.09785 3.51988,-3.89859 3.09027,-3.19136 3.30176,-3.32809 8.37038,-5.41153 2.86,-1.1756 5.92,-2.34391 6.8,-2.59626 0.88,-0.25234 1.82556,-0.76235 2.10124,-1.13335 0.68607,-0.92328 2.42847,-1.41218 6.88396,-1.93158 5.87527,-0.6849 5.6634,-0.89709 -2.68473,-2.68879 l -6.30047,-1.35223 -7.92638,3.91842 -7.92637,3.91842 -1.45775,2.3908 c -0.97483,1.59879 -1.55146,3.12266 -1.74064,4.6 -0.15559,1.21506 -0.41023,2.7942 -0.56588,3.5092 -0.30103,1.38289 0.28986,1.81357 0.92676,0.67549 z m 146.10672,-22.17549 c 3.76959,-2.64 7.046,-4.8 7.28091,-4.8 0.23491,0 0.9841,0.42398 1.66487,0.94218 1.99784,1.52075 12.27151,8.65782 12.46277,8.65782 0.0962,0 0.17499,-0.24738 0.17499,-0.54974 0,-0.42864 -2.73537,-9.62619 -4.5508,-15.30188 -0.23682,-0.74038 0.61724,-1.52225 6.5392,-5.98641 3.74638,-2.82414 6.8116,-5.27591 6.8116,-5.44839 0,-0.17247 -2.385,-0.33145 -5.3,-0.35328 -2.915,-0.0218 -6.79167,-0.15684 -8.61481,-0.3 l -3.3148,-0.2603 -2.6852,-8.0995 c -1.47686,-4.45472 -2.88235,-8.09972 -3.12332,-8.1 -0.24097,-2.8e-4 -1.64831,3.66234 -3.12742,8.13916 l -2.6893,8.13966 -5.07258,0.25872 c -2.78991,0.14229 -6.73757,0.25944 -8.77257,0.26034 -2.035,8.9e-4 -3.69226,0.13662 -3.68279,0.30162 0.009,0.165 2.90403,2.4591 6.43236,5.09801 3.52834,2.63891 6.57783,4.99403 6.77666,5.2336 0.22576,0.27202 -0.53633,3.35195 -2.02947,8.20199 -2.28237,7.41362 -2.62425,8.7664 -2.21543,8.7664 0.0997,0 3.26554,-2.16 7.03513,-4.8 z m -93.61646,-80.6838 c 3.41,-1.63818 8,-3.69823 10.2,-4.57789 4.55583,-1.82163 5.11405,-2.19705 3.75786,-2.52724 -2.61135,-0.63577 -11.43559,-1.64813 -11.98337,-1.37479 -1.94835,0.97223 -7.23805,5.48578 -9.27449,7.91366 -1.03009,1.22808 -1.45357,3.16316 -0.82894,3.78779 0.40718,0.40718 1.36856,0.0262 8.12894,-3.22153 z M 52.2838,478.19004 c -0.01442,-0.165 -0.05942,-35.04001 -0.1,-77.50001 l -0.07379,-77.2 -11.7,-0.10604 -11.7,-0.10604 0,-5.18634 c 0,-5.05895 0.0221,-5.19072 0.9,-5.36455 1.853778,-0.36708 93.86127,-1.05454 139.98592,-1.04595 46.92927,0.009 47.8942,0.0244 48.3,0.78262 0.60312,1.12694 0.53379,9.31274 -0.0859,10.14442 -0.42907,0.57583 -1.49308,0.68598 -7.5,0.77645 l -7,0.10543 -0.0654,77.4 -0.0654,77.40001 -5.43464,0.11128 -5.43464,0.11129 0,-77.6125 v -77.6125 l -64.5,0.10121 -64.500001,0.10121 -0.101012,77.5 -0.101013,77.50001 h -5.398987 c -2.969443,0 -5.410782,-0.135 -5.425197,-0.3 z M 67.737902,309.78459 c -0.125341,-0.12534 -0.227893,-1.35769 -0.227893,-2.73855 0,-2.14098 0.130895,-2.60233 0.889003,-3.13333 0.488951,-0.34247 1.266281,-0.62268 1.727399,-0.62268 1.794191,0 5.050344,-1.27209 5.905328,-2.30704 2.782701,-3.36846 2.616857,-3.29296 7.233427,-3.29296 3.759541,0 4.261588,-0.0839 4.63077,-0.7737 0.507181,-0.94768 0.562323,-14.28746 0.06034,-14.59771 -0.307481,-0.19003 -7.209036,3.65944 -17.779319,9.91673 l -3.133051,1.85468 h -6.943342 c -5.115417,0 -7.028536,-0.13163 -7.266949,-0.5 -0.177983,-0.275 -0.413607,-3.0975 -0.523607,-6.27223 l -0.199999,-5.77223 -1.046531,-0.27888 c -0.575592,-0.15338 -8.675592,-1.22929 -18,-2.3909 -9.790039,-1.21962 -17.178762,-2.31668 -17.486662,-2.59637 -0.424039,-0.3852 -0.579885,-4.44956 -0.761276,-19.85359 l -0.228082,-19.36925 2.161275,-1.83092 c 1.188702,-1.00701 6.571276,-5.28747 11.961276,-9.51214 5.39,-4.22467 12.199592,-9.57258 15.132426,-11.88426 l 5.332427,-4.20304 -0.109244,-11.2681 c -0.07753,-7.99654 0.02581,-11.51543 0.355904,-12.11999 0.255831,-0.46855 1.145399,-1.12452 1.976817,-1.45771 1.734554,-0.69513 28.307956,-12.99388 47.849252,-22.14567 7.294328,-3.41616 20.920078,-9.97624 30.279448,-14.57796 13.82532,-6.7975 17.32733,-8.36677 18.67143,-8.36677 0.90992,0 1.90576,0.25137 2.21298,0.55859 0.3809,0.3809 0.70954,2.51228 1.03308,6.7 2.4895,32.22222 3.45959,45.13286 5.28538,70.34142 0.47005,6.49 1.07794,14.77 1.35085,18.4 0.27292,3.63 0.35642,6.98969 0.18556,7.46598 -0.33905,0.94517 -1.33555,1.49871 -20.75631,11.52984 -6.71,3.46581 -15.035,7.82716 -18.5,9.69187 -6.05342,3.2577 -6.30099,3.43975 -6.32522,4.65135 -0.10779,5.38886 0.11665,27.28573 0.28137,27.45044 0.11427,0.11428 2.42874,0.14786 5.14327,0.0746 4.61512,-0.12448 4.96358,-0.0807 5.36804,0.67508 0.48745,0.91082 0.58929,10.39504 0.11955,11.13371 -0.22006,0.34604 -6.25479,0.58663 -22.49388,0.8968 -12.20622,0.23313 -24.655579,0.49787 -27.665239,0.58831 -3.009659,0.0904 -5.574659,0.0619 -5.699999,-0.0635 z m 24.348001,-40.44417 c 15.597977,-8.64804 26.379547,-14.49185 38.824107,-21.04339 12.58344,-6.62466 15.40365,-8.28227 15.63075,-9.18712 0.12551,-0.50005 -0.22762,-11.50909 -0.78472,-24.46453 -0.5571,-12.95545 -1.3178,-30.93535 -1.69045,-39.95535 -0.37264,-9.02 -0.82417,-16.80115 -1.0034,-17.29143 l -0.32586,-0.89143 -1.71316,0.74093 c -3.79678,1.64208 -10.51189,4.71904 -22.01499,10.08759 -6.65399,3.10545 -16.68817,7.707 -22.298171,10.22567 -5.61,2.51867 -13.045474,5.85718 -16.523275,7.41891 -5.22821,2.34776 -6.429783,3.04547 -6.938281,4.02879 -0.550376,1.06431 -0.568242,5.81266 -0.170013,45.18419 0.244746,24.19719 0.542595,44.15282 0.661888,44.34583 0.119292,0.19302 0.420424,0.35095 0.669182,0.35095 0.248757,0 8.203134,-4.29733 17.676393,-9.54961 z m 36.079047,39.27122 c -0.48919,-0.48919 -0.28342,-11.13313 0.22506,-11.64161 0.31669,-0.3167 2.01778,-0.48 5,-0.48 h 4.52 l 0.001,-1.1 c 8.3e-4,-0.605 0.373,-1.70937 0.82706,-2.45416 l 0.82556,-1.35415 2.43162,0.25415 c 1.33739,0.13979 3.39813,0.25416 4.57942,0.25416 2.06079,0 2.17484,0.0567 2.8154,1.4 0.78807,1.65259 1.76636,1.79846 2.68267,0.4 0.63479,-0.96881 0.7959,-1 5.166,-1 4.6206,0 5.47078,0.25443 5.47078,1.6372 0,1.52374 2.43834,1.27472 3.16648,-0.32338 0.42789,-0.9391 0.60729,-0.99874 2.30459,-0.7661 1.01232,0.13875 2.99465,0.25228 4.40517,0.25228 2.55286,0 2.56725,0.006 3.14954,1.4 0.72935,1.7456 2.33241,1.96835 3.03697,0.422 0.58908,-1.29288 0.80153,-1.33893 4.53725,-0.98344 1.76,0.16749 3.78134,0.31733 4.49187,0.33298 1.09265,0.0241 1.41774,0.2752 2.10813,1.62846 0.44894,0.88 1.01384,1.6 1.25532,1.6 0.24149,0 1.06239,-0.54729 1.82424,-1.2162 1.31319,-1.15299 1.51342,-1.20351 3.85281,-0.97209 4.49748,0.44492 8.41013,0.99745 8.6316,1.21893 0.12015,0.12014 0.3124,1.15076 0.42724,2.29025 l 0.20879,2.0718 1.96133,0.27927 c 2.74994,0.39156 3.25847,1.03222 3.14833,3.96642 -0.0497,1.32371 -0.19165,2.57067 -0.31547,2.77102 -0.2537,0.41049 -82.32966,0.5218 -82.73925,0.11221 z"
     id="path2" /></svg>
